<?xml version="1.0" encoding="UTF-8"?>
<svg id="_レイヤー_1" data-name="レイヤー 1" xmlns="http://www.w3.org/2000/svg" viewBox="0 0 529.84 173.18">
  <defs>
    <style>
      .cls-1 {
        fill: #fff;
      }
    </style>
  </defs>
  <path class="cls-1" d="M167,60.18h9.99c.35.37-.57,6.81,1.99,6.99,4.62-13.1,23.85-12.03,26.51,2,5.24-10.05,19.9-16.54,27.51-5.5,1.42,2.06,4,9.8,4,12v44.5h-11v-44.5c0-.79-2.54-5.76-3.46-6.54-7.08-5.99-15.54,5.79-15.54,12.54v38.5c-2.09-.35-10.3,1.11-10.75-1.46.79-10.76,1.49-23.25.79-34.09-.46-7.13-1.49-21.62-12.3-16.22-11.48,5.73-4.93,39.05-6.88,50.13-.97,2.98-8.26,1.2-10.86,1.64v-60Z"/>
  <path class="cls-1" d="M56,71.18h29v-35h11v84h-11v-39h-29v39h-11V36.68l1.66-1.34c1.26-.28,2.56-.22,3.84-.22,2.05,0,4.23-.33,5.5,1.56v34.5Z"/>
  <path class="cls-1" d="M344.35,48.53c-11.76,10.87-11.69,51.1,2.15,60.65,8.15,5.63,15.76.79,21.89-4.96l5.52,6.6c-8.02,13.93-26.08,14.92-37.44,4.38-21.27-19.72-16.51-84.95,21.04-81.03,9.05.95,23.84,9.04,10.86,16.93-7.4-6.17-15.78-10.2-24.02-2.58Z"/>
  <path class="cls-1" d="M292,93.18h-32c.14,15.76,11.3,28.37,22.49,11.05l7.48,4.43c-4.72,12.78-19.14,18.02-30.46,9.52-16.12-12.11-13.09-60.07,11.99-60.07,17.46,0,21.2,21.33,20.5,35.07ZM261,84.18h20c.53-22.26-20.31-21.37-20,0Z"/>
  <path class="cls-1" d="M499,93.18h-31c-.83,14.68,11.39,29.37,21.65,12.08l7.22,3.07c-.18,7.1-7.58,13.07-14.36,13.85-38.12,4.38-30.57-76.04,4.21-62.21,5.51,2.19,12.28,12.06,12.28,17.72v15.5ZM489,84.18c-.75-22.18-18.99-20.85-21,0h21Z"/>
  <path class="cls-1" d="M127.74,58.42c12.1-2.09,20.11,4.87,23.54,15.98,4.38,14.2,3.57,39.59-12.58,45.98-33.28,13.17-38.88-57.13-10.96-61.96ZM137.65,109.83c7.22-7.16,7.34-43.06-6.05-42.61s-11.84,29.67-8.4,38.25c2.43,6.06,9.25,9.52,14.45,4.36Z"/>
  <path class="cls-1" d="M416,120.18l-8.07-.44-.95-7.56-5.49,7c-27.58,12.76-32.4-32.47-6.91-35.91,7.71-1.04,16.11,2.48,9.62-10.79-3.99-8.15-14.16-5.46-18.71.69l-5.06-4.99c-2.05-3.97,10.85-9.5,14.14-9.9,30.56-3.75,19.12,44.15,21.42,61.92ZM406,91.17c-5.72-.27-12.1-.52-16.02,4.49-4.17,5.31-2.38,17.23,5.5,17.41,8.92.2,11.06-15.21,10.53-21.89Z"/>
  <path class="cls-1" d="M432,43.68c1.39-10.32,9.77-17.41,20.36-15.36l1.49,1.49-.33,7.42c-.77,1.3-3.13-.22-4.78.09-8.14,1.52-6.76,16.72-6.76,22.86h10.01s0,9,0,9h-10.01s0,50.99,0,50.99h-10v-51l-8.02-.58v-8.43s8.02,0,8.02,0c.5-5.2-.68-11.46,0-16.5Z"/>
</svg>